<svg width="35" height="35" viewBox="0 0 35 35" fill="none" xmlns="http://www.w3.org/2000/svg">
<path d="M17.5 35C12.8256 35 8.43097 33.1797 5.12559 29.8744C1.82021 26.5691 0 22.1744 0 17.5C0 12.8256 1.82027 8.43097 5.12559 5.12559C8.4309 1.82021 12.8256 0 17.5 0C22.1744 0 26.569 1.82027 29.8744 5.12559C33.1798 8.4309 35 12.8256 35 17.5C35 22.1744 33.1797 26.569 29.8744 29.8744C26.5691 33.1798 22.1744 35 17.5 35ZM17.5 2.1875C9.05666 2.1875 2.1875 9.05666 2.1875 17.5C2.1875 25.9433 9.05666 32.8125 17.5 32.8125C25.9433 32.8125 32.8125 25.9433 32.8125 17.5C32.8125 9.05666 25.9433 2.1875 17.5 2.1875Z" fill="black"/>
<path d="M17.5 25.1562C16.896 25.1562 16.4062 24.6665 16.4062 24.0625C16.4062 21.3017 17.4813 18.7063 19.4335 16.7541C20.6553 15.5323 21.3281 13.9079 21.3281 12.1801C21.3281 10.2887 19.7894 8.75 17.8981 8.75H17.6488C15.7575 8.75 14.2188 10.2887 14.2188 12.1801V12.5781C14.2188 13.1821 13.729 13.6719 13.125 13.6719C12.521 13.6719 12.0312 13.1821 12.0312 12.5781V12.1801C12.0312 9.0825 14.5513 6.5625 17.6488 6.5625H17.8981C20.9956 6.5625 23.5156 9.0825 23.5156 12.1801C23.5156 14.4922 22.6153 16.6659 20.9803 18.3009C19.4413 19.8399 18.5938 21.8861 18.5938 24.0625C18.5938 24.6665 18.104 25.1562 17.5 25.1562Z" fill="black"/>
<path d="M17.5014 29.5312C16.8973 29.5312 16.4073 29.0415 16.4073 28.4375C16.4073 27.8335 16.8966 27.3438 17.5007 27.3438H17.5014C18.1054 27.3438 18.5951 27.8335 18.5951 28.4375C18.5951 29.0415 18.1054 29.5312 17.5014 29.5312Z" fill="black"/>
</svg>
