<svg width="80" height="80" viewBox="0 0 80 80" fill="none" xmlns="http://www.w3.org/2000/svg">
<path d="M49.7812 65.9656H30.2188V69.9577H49.7812V65.9656Z" fill="#86A9BF"/>
<path d="M55.5958 73.9488C55.6025 73.908 55.6084 73.8669 55.6084 73.8245V70.7391C55.6084 70.3094 55.2569 69.9578 54.8272 69.9578H25.1727C24.743 69.9578 24.3914 70.3094 24.3914 70.7391V73.8245C24.3914 73.8669 24.3973 73.908 24.4041 73.9488H55.5958Z" fill="#B3CCE2"/>
<path opacity="0.1" d="M35.1245 65.9656H30.2188V69.9577H35.1245V65.9656Z" fill="#2F003A"/>
<path opacity="0.1" d="M30.9502 73.9488C30.9434 73.908 30.9375 73.8669 30.9375 73.8245V70.7391C30.9375 70.3094 31.2891 69.9578 31.7187 69.9578H25.1727C24.743 69.9578 24.3914 70.3094 24.3914 70.7391V73.8245C24.3914 73.8669 24.3973 73.908 24.4041 73.9488H30.9502Z" fill="#2F003A"/>
<path d="M61.9476 78.0469C61.9476 78.4766 61.5961 78.8281 61.1664 78.8281H18.8336C18.4039 78.8281 18.0523 78.4766 18.0523 78.0469V74.73C18.0523 74.3003 18.4039 73.9488 18.8336 73.9488H61.1664C61.5961 73.9488 61.9476 74.3003 61.9476 74.73V78.0469Z" fill="#86A9BF"/>
<g opacity="0.1">
<path opacity="0.1" d="M24.5422 78.0469V74.73C24.5422 74.3003 24.8937 73.9488 25.3234 73.9488H18.8336C18.4039 73.9488 18.0523 74.3003 18.0523 74.73V78.0469C18.0523 78.4766 18.4039 78.8281 18.8336 78.8281H25.3234C24.8937 78.8281 24.5422 78.4766 24.5422 78.0469Z" fill="black"/>
</g>
<path d="M61.9476 64.4033C61.9476 65.2627 61.2445 65.9658 60.3851 65.9658H19.6148C18.7555 65.9658 18.0523 65.2627 18.0523 64.4033V2.73438C18.0523 1.875 18.7555 1.17188 19.6148 1.17188H60.3851C61.2445 1.17188 61.9476 1.875 61.9476 2.73438V64.4033Z" fill="#B3CCE2"/>
<g opacity="0.1">
<path opacity="0.1" d="M21.2609 64.4033V2.73438C21.2609 1.875 21.9641 1.17188 22.8234 1.17188H19.6148C18.7555 1.17188 18.0523 1.875 18.0523 2.73438V64.4033C18.0523 65.2627 18.7555 65.9658 19.6148 65.9658H22.8234C21.9641 65.9658 21.2609 65.2627 21.2609 64.4033Z" fill="black"/>
</g>
<path d="M23.3341 1.17188V7.82094C23.3341 7.525 23.5753 7.28516 23.873 7.28516H56.1273C56.425 7.28516 56.6663 7.525 56.6663 7.82094V1.17188H23.3341Z" fill="#86A9BF"/>
<path d="M25.1305 50.6739C24.14 50.6739 23.3341 49.8728 23.3341 48.8884V7.82094C23.3341 7.525 23.5753 7.28516 23.873 7.28516H56.1273C56.425 7.28516 56.6663 7.525 56.6663 7.82094V48.8884C56.6663 49.8728 55.86 50.6739 54.8695 50.6739H25.1305Z" fill="#FF9300"/>
<path d="M52.7563 7.28516H27.2438V50.6742H52.7563V7.28516Z" fill="#FFC554"/>
<path d="M52.7563 31.2078H27.2438V35.3219H52.7563V31.2078Z" fill="#FF9300"/>
<path d="M52.7563 40.8469H27.2438V44.9608H52.7563V40.8469Z" fill="#FF9300"/>
<path d="M52.7563 21.2047H27.2438V25.3187H52.7563V21.2047Z" fill="#FF9300"/>
<path d="M52.7563 7.28516H27.2438V16.0309H52.7563V7.28516Z" fill="#FCE591"/>
<path d="M44.7612 58.8203C44.7612 59.25 44.4097 59.6016 43.98 59.6016H36.0203C35.5906 59.6016 35.2391 59.25 35.2391 58.8203V56.4547C35.2391 56.025 35.5906 55.6734 36.0203 55.6734H43.9798C44.4095 55.6734 44.7611 56.025 44.7611 56.4547L44.7612 58.8203Z" fill="#FCE591"/>
<path d="M25.3109 59.4234C26.4024 59.4234 27.2872 58.5441 27.2872 57.4594C27.2872 56.3747 26.4024 55.4953 25.3109 55.4953C24.2195 55.4953 23.3347 56.3747 23.3347 57.4594C23.3347 58.5441 24.2195 59.4234 25.3109 59.4234Z" fill="#EF5050"/>
<path d="M56.6663 57.4589C56.6663 58.5433 55.7811 59.423 54.6897 59.423C53.5988 59.423 52.7136 58.5433 52.7136 57.4589C52.7136 56.3744 53.5988 55.4947 54.6897 55.4947C55.7811 55.4947 56.6663 56.3744 56.6663 57.4589Z" fill="#ABB53C"/>
<path d="M61.9476 55.3906C62.595 55.3906 63.1195 54.8661 63.1195 54.2188V2.73438C63.1195 1.22672 61.8928 0 60.3851 0H19.6148C18.107 0 16.8805 1.22672 16.8805 2.73438V64.4033C16.8805 65.9109 18.107 67.1377 19.6148 67.1377H29.0464V68.7859H25.1725C24.0955 68.7859 23.2194 69.662 23.2194 70.7391V72.7769H18.8336C17.7566 72.7769 16.8805 73.653 16.8805 74.73V78.0469C16.8805 79.1239 17.7566 80 18.8336 80H61.1664C62.2434 80 63.1195 79.1239 63.1195 78.0469V74.73C63.1195 73.653 62.2434 72.7769 61.1664 72.7769H56.7803V70.7391C56.7803 69.662 55.9042 68.7859 54.8272 68.7859H50.9536V67.1377H60.3851C61.8928 67.1377 63.1195 65.9109 63.1195 64.4033V60.7812C63.1195 60.1339 62.595 59.6094 61.9476 59.6094C61.3003 59.6094 60.7758 60.1339 60.7758 60.7812V64.4033C60.7758 64.615 60.5969 64.7939 60.3851 64.7939H19.6148C19.4031 64.7939 19.2242 64.615 19.2242 64.4033V2.73438C19.2242 2.52266 19.4031 2.34375 19.6148 2.34375H22.1622V48.8884C22.1622 50.5192 23.4937 51.8458 25.1305 51.8458H54.8695C56.5066 51.8458 57.8381 50.5192 57.8381 48.8884V22.0312C57.8381 21.3839 57.3136 20.8594 56.6662 20.8594C56.0189 20.8594 55.4944 21.3839 55.4944 22.0312V48.8884C55.4944 49.2267 55.2141 49.502 54.8695 49.502H53.928V8.45703H55.4944V15.7812C55.4944 16.4286 56.0189 16.9531 56.6662 16.9531C57.3136 16.9531 57.8381 16.4286 57.8381 15.7812V2.34375H60.3851C60.5969 2.34375 60.7758 2.52266 60.7758 2.73438V54.2188C60.7758 54.8661 61.3003 55.3906 61.9476 55.3906ZM54.4366 71.1295V72.7767H40.3123C39.665 72.7767 39.1405 73.3012 39.1405 73.9486C39.1405 74.5959 39.665 75.1205 40.3123 75.1205H60.7758V77.6562H19.2242V75.1206H33.7498C34.3972 75.1206 34.9217 74.5961 34.9217 73.9488C34.9217 73.3014 34.3972 72.7769 33.7498 72.7769H25.5633V71.1297H54.4366V71.1295ZM48.6098 68.7858H31.3903V67.1375H48.6098V68.7858ZM24.5059 48.8884V8.45703H26.0723V49.502H25.1305C24.7861 49.502 24.5059 49.2267 24.5059 48.8884ZM28.4161 22.377H51.5841V24.1473H28.4161V22.377ZM28.4161 32.3797H51.5841V34.15H28.4161V32.3797ZM28.4161 42.018H51.5841V43.7881H28.4161V42.018ZM51.5842 39.6742H28.4161V36.4939H51.5841V39.6742H51.5842ZM51.5842 30.0359H28.4161V26.4909H51.5841V30.0359H51.5842ZM51.5842 20.0333H28.4161V17.2028H51.5841V20.0333H51.5842ZM51.5842 14.8591H28.4161V8.45703H51.5841V14.8591H51.5842ZM28.4161 49.502V46.132H51.5841V49.502H28.4161ZM55.4944 6.11328H24.5059V2.34375H55.4944V6.11328Z" fill="black"/>
<path d="M36.0203 54.5016C34.9433 54.5016 34.0672 55.3777 34.0672 56.4547V58.8205C34.0672 59.8975 34.9433 60.7736 36.0203 60.7736H43.9798C45.0569 60.7736 45.933 59.8975 45.933 58.8205V56.4547C45.933 55.3777 45.0569 54.5016 43.9798 54.5016H36.0203ZM43.5894 58.4297H36.4109V56.8453H43.5892L43.5894 58.4297Z" fill="black"/>
<path d="M22.1622 57.4589C22.1622 59.188 23.5744 60.5948 25.3102 60.5948C27.0461 60.5948 28.4583 59.188 28.4583 57.4589C28.4583 55.7297 27.0461 54.3228 25.3102 54.3228C23.5744 54.3228 22.1622 55.7297 22.1622 57.4589ZM26.1147 57.4589C26.1147 57.8958 25.7537 58.2511 25.3103 58.2511C24.8669 58.2511 24.5061 57.8958 24.5061 57.4589C24.5061 57.022 24.867 56.6666 25.3103 56.6666C25.7537 56.6666 26.1147 57.022 26.1147 57.4589Z" fill="black"/>
<path d="M54.6897 54.3228C52.9539 54.3228 51.5417 55.7297 51.5417 57.4589C51.5417 59.188 52.9539 60.5948 54.6897 60.5948C56.4258 60.5948 57.8381 59.188 57.8381 57.4589C57.8381 55.7297 56.4258 54.3228 54.6897 54.3228ZM54.6897 58.2513C54.2463 58.2513 53.8855 57.8959 53.8855 57.4591C53.8855 57.0222 54.2464 56.6667 54.6897 56.6667C55.1334 56.6667 55.4944 57.0222 55.4944 57.4591C55.4944 57.8959 55.1333 58.2513 54.6897 58.2513Z" fill="black"/>
</svg>
