<svg width="80" height="80" viewBox="0 0 80 80" fill="none" xmlns="http://www.w3.org/2000/svg">
<g clip-path="url(#clip0)">
<path d="M39.9998 60.3033C36.5926 60.3033 33.3218 59.7177 30.2789 58.6443L29.0857 72.2532H50.87L49.6782 58.6593C46.6473 59.7232 43.3909 60.3033 39.9998 60.3033Z" fill="#71E4BF"/>
<path d="M49.678 58.6593C46.6471 59.7232 43.3909 60.3035 39.9996 60.3035C36.5924 60.3035 33.3217 59.7179 30.2787 58.6445L30.1148 61.7317C32.7395 62.5345 35.5607 63.3161 38.4997 63.3161C41.4248 63.3161 44.2335 62.8822 46.8479 62.0864L47.8759 72.2532H50.8698L49.678 58.6593Z" fill="#0EA8B2"/>
<path d="M18.4507 72.253H61.5487V78.8256H18.4507V72.253Z" fill="#71E4BF"/>
<path d="M58.4169 72.253H61.5487V78.8254H58.4169V72.253Z" fill="#0EA8B2"/>
<path d="M39.9998 60.3033C56.2249 60.3033 69.378 47.0668 69.378 30.7388C69.378 14.4107 56.2249 1.17423 39.9998 1.17423C23.7746 1.17423 10.6215 14.4107 10.6215 30.7388C10.6215 47.0668 23.7746 60.3033 39.9998 60.3033Z" fill="#B6E6FA"/>
<path d="M51.4664 3.51144C60.2975 8.6102 66.2464 18.1923 66.2464 29.1729C66.2464 45.5009 53.0933 58.7375 36.8682 58.7375C32.7998 58.7375 28.9247 57.9049 25.4015 56.4004C29.7022 58.8834 34.6862 60.3033 39.9999 60.3033C56.225 60.3033 69.3781 47.067 69.3781 30.7388C69.378 18.505 61.9938 8.00703 51.4664 3.51144Z" fill="#94B7F7"/>
<path d="M39.9998 47.265C49.0694 47.265 56.4219 39.866 56.4219 30.7388C56.4219 21.6116 49.0694 14.2125 39.9998 14.2125C30.9301 14.2125 23.5776 21.6116 23.5776 30.7388C23.5776 39.866 30.9301 47.265 39.9998 47.265Z" fill="#2DC2F1"/>
<path d="M46.3019 29.0876L46.0949 29.446C46.3193 30.8304 46.0866 32.2978 45.3306 33.6071C44.5747 34.9163 43.4202 35.8516 42.1091 36.3496L41.8918 36.726C43.662 39.1357 50.9317 48.2592 57.9243 44.4805C65.8438 40.2008 64.0386 30.5263 57.8094 30.8196C51.8599 31.0997 48.2603 30.5601 46.3019 29.0876Z" fill="white"/>
<path d="M37.8284 36.708L37.6214 36.3496C36.3103 35.8516 35.1558 34.9165 34.3999 33.6071C33.6441 32.2979 33.4114 30.8305 33.6356 29.446L33.4183 29.0696C30.4463 29.3978 18.9103 31.1317 18.6865 39.077C18.433 48.0754 27.7142 51.3493 30.5747 45.8078C33.3068 40.5152 35.574 37.6679 37.8284 36.708Z" fill="white"/>
<path d="M35.4658 25.5595H35.8797C36.9664 24.6731 38.3536 24.1409 39.8654 24.1409C41.3772 24.1409 42.7643 24.6731 43.8511 25.5595H44.2858C45.4876 22.8216 49.754 11.9643 42.9851 7.79782C35.3189 3.0791 27.8432 9.47987 31.212 14.7279C34.4292 19.74 35.7617 23.1273 35.4658 25.5595Z" fill="white"/>
<path d="M42.9851 7.79782C38.8445 5.24907 34.7604 5.9451 32.4096 7.95049C34.5745 7.43032 37.2023 7.7319 39.8534 9.36368C45.2445 12.6821 43.6355 20.2447 42.15 24.5691C42.7704 24.8104 43.3438 25.1458 43.8512 25.5595H44.2858C45.4875 22.8216 49.754 11.9643 42.9851 7.79782Z" fill="#D5F6EA"/>
<path d="M18.6867 39.077C18.5498 43.9373 21.1946 47.1262 24.1066 48.1593C22.5738 46.5446 21.5209 44.118 21.6086 41.0063C21.7868 34.6783 29.1407 32.2904 33.6286 31.4146C33.5274 30.7566 33.531 30.0924 33.6358 29.4462L33.4184 29.0697C30.4464 29.3978 18.9104 31.1317 18.6867 39.077Z" fill="#D5F6EA"/>
<path d="M57.9243 44.4805C62.202 42.1689 63.6411 38.284 63.0798 35.2455C62.4478 37.3804 60.8727 39.5054 58.1342 40.9853C52.5649 43.9949 46.8199 38.8202 43.8175 35.3715C43.2982 35.7881 42.7212 36.117 42.1091 36.3496L41.8918 36.726C43.662 39.1357 50.9317 48.2592 57.9243 44.4805Z" fill="#D5F6EA"/>
<path d="M39.8654 36.7625C43.3507 36.7625 46.1761 33.9371 46.1761 30.4518C46.1761 26.9664 43.3507 24.141 39.8654 24.141C36.3801 24.141 33.5547 26.9664 33.5547 30.4518C33.5547 33.9371 36.3801 36.7625 39.8654 36.7625Z" fill="#71E4BF"/>
<path d="M39.8654 24.1409C39.6321 24.1409 39.4021 24.1545 39.1753 24.1792C41.6549 24.4803 43.5762 26.591 43.5762 29.1516C43.5762 31.919 41.3328 34.1624 38.5654 34.1624C36.0046 34.1624 33.8942 32.2411 33.5929 29.7615C33.5681 29.9883 33.5547 30.2183 33.5547 30.4516C33.5547 33.9369 36.3801 36.7623 39.8654 36.7623C43.3507 36.7623 46.1761 33.9369 46.1761 30.4516C46.1761 26.9663 43.3507 24.1409 39.8654 24.1409Z" fill="#0EA8B2"/>
<path d="M60.6812 53.3647C61.2684 52.8212 61.8421 52.247 62.3861 51.6581L60.6605 50.0643C60.158 50.6086 59.6281 51.139 59.0857 51.641L60.6812 53.3647Z" fill="black"/>
<path d="M70.3673 27.3438C70.138 25.2556 69.6951 23.1912 69.0448 21.1935C68.4114 19.2472 67.5821 17.3652 66.5744 15.5838C65.5751 13.8168 64.4009 12.1494 63.0748 10.6125C61.7536 9.0812 60.2822 7.68007 58.6877 6.436C57.0932 5.19192 55.3757 4.10552 53.5673 3.19999C51.7238 2.27691 49.7861 1.54221 47.7934 1.01295C45.7631 0.473665 43.6769 0.148123 41.5789 0.040235C41.0531 0.0134588 40.5264 -7.62939e-06 39.9998 -7.62939e-06C32.9116 -7.62939e-06 26.0041 2.49738 20.5496 7.03227C20.2784 7.25776 20.0065 7.49186 19.7416 7.72799L21.3048 9.48097C21.5494 9.26269 21.8005 9.04675 22.0509 8.8385L22.0511 8.83834C24.3739 6.90701 27.0101 5.35712 29.8254 4.26227C32.6191 3.17587 35.5846 2.53763 38.5784 2.3848C41.1436 2.25389 43.7271 2.47609 46.2316 3.04684C48.5775 3.58143 50.852 4.4223 52.9829 5.53938C55.0768 6.63689 57.0304 7.99935 58.7868 9.58134C60.5518 11.1712 62.1169 12.9816 63.4347 14.958C64.7593 16.9446 65.8327 19.0979 66.6195 21.3522C67.4283 23.6694 67.9324 26.0907 68.1196 28.5377C68.3423 31.4476 68.1248 34.3937 67.465 37.2369C66.7804 40.1875 65.6171 43.0211 64.0345 45.6035C63.6435 46.2414 63.2276 46.8639 62.788 47.4694C62.5682 47.7725 62.3393 48.0749 62.1077 48.3685L63.9521 49.8227C64.2028 49.5047 64.4507 49.1771 64.6888 48.8489C66.2207 46.7384 67.4867 44.436 68.4388 42.008C69.3864 39.5911 70.0212 37.0541 70.33 34.4768C70.6137 32.1116 70.6272 29.7122 70.3673 27.3438Z" fill="black"/>
<path d="M19.6827 11.0475L17.9855 9.42381C17.4252 10.0093 16.8814 10.6248 16.369 11.2532L18.1892 12.7376C18.6625 12.157 19.165 11.5885 19.6827 11.0475Z" fill="black"/>
<path d="M50.927 59.4567C53.3752 58.5126 55.7074 57.2462 57.8747 55.6706C58.2016 55.4331 58.5291 55.185 58.848 54.9331L57.3926 53.0896C57.098 53.3221 56.7955 53.5514 56.4936 53.7709C54.2912 55.3718 51.8643 56.6497 49.2946 57.5492C46.4023 58.5616 43.3546 59.095 40.2904 59.1274C37.4912 59.157 34.6877 58.7671 32.0049 57.9676C29.8315 57.3199 27.7391 56.4051 25.7858 55.2531C23.8535 54.1135 22.0586 52.7429 20.4479 51.1816C18.8312 49.6142 17.4008 47.8552 16.1963 45.9525C14.9778 44.0276 13.9916 41.9565 13.2674 39.7964C12.5258 37.5843 12.0603 35.2812 11.881 32.9551C11.6674 30.1846 11.8575 27.385 12.4458 24.6692C13.0666 21.8024 14.1314 19.0329 15.5983 16.4926C15.9835 15.8255 16.3961 15.174 16.8342 14.5403L14.9023 13.2044C13.6718 14.9837 12.6304 16.8927 11.8017 18.891C10.9992 20.8263 10.3957 22.8436 10.0013 24.9011C9.60921 26.9471 9.42428 29.0322 9.44918 31.1151C9.47016 32.8696 9.63912 34.6224 9.95683 36.3482C10.2648 38.0218 10.7125 39.6694 11.2939 41.2686C11.8683 42.8482 12.5729 44.3803 13.3978 45.8447C14.2113 47.2888 15.1416 48.6671 16.1761 49.9621C17.211 51.2574 18.3502 52.4693 19.579 53.5824C20.8032 54.691 22.1165 55.7013 23.5028 56.5995C24.8969 57.5027 26.3645 58.2922 27.8872 58.9564C28.2652 59.1213 28.6466 59.2785 29.0312 59.4277L28.0096 71.0787H17.2761V80H62.7229V71.0787H51.9459L50.927 59.4567ZM31.3199 60.2171C33.5169 60.8716 35.7887 61.2726 38.0766 61.4171C40.3349 61.5598 42.6107 61.4507 44.845 61.0939C46.1259 60.8894 47.3934 60.6027 48.6374 60.2349L49.588 71.0788H30.3677L31.3199 60.2171ZM60.3743 73.4276V77.6514H19.6251V73.4276H60.3743Z" fill="black"/>
<path d="M38.8189 29.434H41.1677V31.7827H38.8189V29.434Z" fill="black"/>
<path d="M19.1798 20.1138C20.0112 18.4878 21.0351 16.9612 22.2236 15.5747C23.4289 14.1685 24.8028 12.9082 26.3058 11.8263C26.4948 11.6902 26.6859 11.5571 26.8788 11.4269L25.5641 9.4805C23.401 10.9415 21.4628 12.7315 19.8382 14.7748C18.2476 16.7752 16.9601 19.0142 16.0319 21.3955C15.0955 23.7973 14.5268 26.3397 14.3489 28.9114C14.1533 31.7402 14.4235 34.6032 15.1583 37.3422C15.9048 40.1244 17.1332 42.7701 18.7657 45.1428C18.9673 45.4357 19.1747 45.7244 19.388 46.0089L19.4517 45.961C20.5435 47.512 22.0999 48.7475 23.9137 49.3354C25.7243 49.9223 27.7455 49.8144 29.3829 48.798C30.2318 48.2711 30.9328 47.5295 31.4378 46.6694C33.7633 47.9428 36.3676 48.6818 39.0145 48.8267C41.5616 48.966 44.1338 48.5655 46.5097 47.634C47.832 47.1155 49.0897 46.4353 50.251 45.6178C52.459 46.5966 54.9266 46.9026 57.2333 46.0734C55.9629 47.5026 54.5158 48.7738 52.9353 49.8504C51.3534 50.9282 49.6387 51.8103 47.8414 52.4695C46.018 53.1383 44.1108 53.5769 42.1782 53.7704C40.0655 53.9821 37.925 53.9013 35.8339 53.5337C33.6536 53.1502 31.528 52.4559 29.5448 51.4714C29.3023 51.351 29.0618 51.2262 28.8237 51.0972L27.6852 53.1983C30.7123 54.8385 34.0739 55.8483 37.5013 56.1662C40.3832 56.4335 43.3073 56.2083 46.1138 55.5002C48.7183 54.843 51.2157 53.7726 53.4895 52.3428C55.7425 50.9263 57.7729 49.1594 59.4852 47.1221C61.233 45.0425 62.6445 42.6843 63.6505 40.1609C63.7764 39.8449 63.8962 39.5264 64.0094 39.2057L63.9617 39.1888C64.5673 37.2374 64.5298 35.0541 63.6468 33.1911C62.9841 31.7928 61.839 30.6508 60.3946 30.0741C59.5718 29.7456 58.681 29.6079 57.797 29.6452C57.3213 23.349 53.5617 17.7816 47.8798 14.9875C47.802 12.2619 47.0042 9.61188 44.8297 7.70294C46.7494 8.12149 48.6148 8.78542 50.3669 9.67483C52.1399 10.5749 53.7947 11.7048 55.2805 13.0258C56.6967 14.2849 57.9597 15.7154 59.0308 17.2788C60.0896 18.8243 60.9594 20.4985 61.6144 22.2537C62.2702 24.0111 62.7102 25.8483 62.9227 27.7118C62.9493 27.9451 62.9724 28.1789 62.9919 28.4129L65.3735 28.214C65.152 25.5617 64.5147 22.9468 63.4872 20.4915C62.4669 18.0534 61.0645 15.7786 59.3482 13.7689C57.5889 11.709 55.5048 9.92834 53.1929 8.51625C50.882 7.10462 48.3464 6.06614 45.7095 5.45013C42.9207 4.79873 40.0251 4.62148 37.1768 4.91837C36.7728 4.96049 36.3698 5.01216 35.9683 5.07339L35.9727 5.1022C34.031 5.4149 32.1722 6.33829 30.8641 7.8246C29.6449 9.20992 29.0019 11.0529 29.2794 12.8952C29.3558 13.4028 29.4986 13.8998 29.6991 14.3723C29.9242 14.9031 30.2366 15.3786 30.5429 15.8647C28.5129 17.1336 26.7451 18.811 25.3727 20.7727C24.0112 22.7189 23.0448 24.9352 22.5468 27.2579C22.2526 28.6304 22.1233 30.0349 22.1568 31.4379C19.963 32.8638 18.2006 34.8415 17.6723 37.5794C16.9926 35.3878 16.6479 33.097 16.6365 30.803C16.6272 28.9396 16.8413 27.0761 17.2758 25.2641C17.7039 23.4802 18.3444 21.7475 19.1798 20.1138ZM39.9998 46.5048C37.3793 46.5048 34.8262 45.8493 32.5521 44.6014C33.2828 43.2874 34.0634 41.9933 34.9666 40.7896C35.6072 39.9357 36.3169 39.1064 37.1693 38.4561C37.5248 38.1849 37.9068 37.9497 38.3191 37.7755C39.2781 37.9778 40.2716 37.9881 41.2351 37.8091C42.4707 39.4378 44.8956 42.3168 47.9254 44.328C45.5376 45.7557 42.8305 46.5048 39.9998 46.5048ZM35.8003 33.586C35.6304 33.3672 35.478 33.1342 35.346 32.8908C34.3288 31.0134 34.6099 28.641 36.0233 27.0474C37.322 25.583 39.3931 24.9738 41.2775 25.5134C43.1041 26.0365 44.5303 27.5825 44.9018 29.4462C45.3542 31.716 44.1873 34.0423 42.1188 35.066C39.9533 36.138 37.2727 35.4832 35.8003 33.586ZM58.5037 32.0081C58.9793 32.0551 59.4464 32.1867 59.8701 32.4089C60.8736 32.9351 61.5203 33.9186 61.8186 34.9912C62.3484 36.8956 61.8409 38.8753 60.7289 40.4712C59.7724 41.8443 58.3888 43.0327 56.8469 43.6994C55.4071 44.3222 53.8172 44.3308 52.3257 43.8876C50.5018 43.3457 48.8722 42.2457 47.4345 41.0249C46.1312 39.9185 44.9493 38.6696 43.8651 37.3494C43.7603 37.2218 43.6565 37.0934 43.5536 36.9643C44.3441 36.5165 45.0551 35.9162 45.6339 35.2164L49.8758 37.6655L51.0707 35.5959L46.8434 33.1552C47.113 32.4619 47.2771 31.7275 47.3305 30.9854C49.0548 31.6797 50.9509 31.9063 52.7936 32.0081C54.0546 32.0776 55.3191 32.0778 56.5811 32.0417C57.2174 32.0234 57.8686 31.9453 58.5037 32.0081ZM55.445 29.7142C53.9917 29.7282 52.5309 29.6897 51.0881 29.5022C50.0762 29.3709 49.0537 29.1693 48.1103 28.7696C47.7097 28.5998 47.3267 28.3906 46.9793 28.1279C46.671 27.1865 46.1808 26.3273 45.5504 25.5909C46.2663 23.8897 47.3819 20.8355 47.7583 17.5829C52.1468 20.1166 55.0251 24.6368 55.445 29.7142ZM32.82 9.16999C33.8201 8.15062 35.0435 7.60867 36.3269 7.42061L36.3292 7.43611C38.0207 7.1779 39.7572 7.52208 41.3041 8.23001C42.4721 8.76459 43.5214 9.51025 44.2528 10.5802C45.8918 12.9775 45.7134 16.1965 45.1803 18.9123C44.8389 20.651 44.309 22.3533 43.6611 24.0014C42.8629 23.5319 41.9742 23.2104 41.0602 23.0631V18.7225H38.6705V23.0631C37.9522 23.1787 37.249 23.4019 36.5948 23.72C36.3497 21.9902 35.6672 20.3366 34.8998 18.7795C34.3805 17.726 33.8036 16.7015 33.198 15.6956C32.8557 15.127 32.4913 14.5724 32.1456 14.006C31.8612 13.5402 31.6608 13.0219 31.5872 12.4796C31.4179 11.2349 31.9587 10.0477 32.82 9.16999ZM31.7561 17.8762C32.4193 19.034 33.0414 20.2223 33.5364 21.4628C33.888 22.3444 34.1851 23.2649 34.2931 24.2117C34.3404 24.6261 34.3467 25.0439 34.2952 25.4584C33.6477 26.1799 33.1388 27.0275 32.8087 27.9592C30.9259 28.1966 27.598 28.7833 24.5245 30.1613C24.797 25.1327 27.4935 20.5557 31.7561 17.8762ZM22.2077 34.3339C24.027 32.7165 26.4075 31.7906 28.7251 31.1552C29.9264 30.8259 31.1495 30.5745 32.3812 30.3896C32.3731 31.4683 32.5998 32.5469 33.045 33.5295L29.063 35.8285L30.2579 37.8981L34.3656 35.5264C34.7544 35.9473 35.1963 36.3284 35.6708 36.6499C34.4765 37.5852 33.5005 38.782 32.6316 40.0165C32.0576 40.8322 31.5277 41.6785 31.0246 42.5394C30.7407 43.0253 30.4654 43.5162 30.1968 44.0107C29.9242 44.5127 29.6817 45.0368 29.3876 45.5265C28.9559 46.245 28.3114 46.8235 27.5219 47.1186C26.6937 47.4284 25.7835 47.41 24.9362 47.1885C23.3224 46.7663 22.0061 45.6749 21.1534 44.258C20.3291 42.8886 19.9113 41.2769 19.8615 39.6852C19.8556 39.4935 19.8551 39.3017 19.8604 39.1099C19.9135 37.2299 20.8172 35.5699 22.2077 34.3339Z" fill="black"/>
<path d="M34.2887 65.3852H36.6375V67.734H34.2887V65.3852Z" fill="white"/>
<path d="M43.6839 65.3852H46.0327V67.734H43.6839V65.3852Z" fill="white"/>
<path d="M38.9863 65.3852H41.3351V67.734H38.9863V65.3852Z" fill="white"/>
</g>
<defs>
<clipPath id="clip0">
<rect width="80" height="80" fill="white"/>
</clipPath>
</defs>
</svg>
