<svg width="100" height="100" viewBox="0 0 100 100" fill="none" xmlns="http://www.w3.org/2000/svg">
<g clip-path="url(#clip0)">
<path d="M99.6818 44.2408C99.4693 43.7324 99.1652 43.2699 98.7777 42.8824L86.2818 30.3865C84.6527 28.7615 82.0193 28.7615 80.3902 30.3865C78.7611 32.0156 78.7611 34.6531 80.3902 36.2781L85.7777 41.6656H62.5025C60.1984 41.6656 58.3359 43.5322 58.3359 45.8322C58.3359 48.1322 60.1984 49.9988 62.5025 49.9988H85.7775L80.39 55.3863C78.7609 57.0154 78.7609 59.6529 80.39 61.2779C81.2025 62.0945 82.2691 62.4988 83.3359 62.4988C84.4027 62.4988 85.4693 62.0947 86.2818 61.2779L98.7777 48.782C99.1652 48.3986 99.4693 47.9361 99.6818 47.4236C100.103 46.4074 100.103 45.2574 99.6818 44.2408Z" fill="black"/>
<path d="M70.8366 58.3334C68.5325 58.3334 66.67 60.2 66.67 62.5V83.3334H50.0034V16.6666C50.0034 14.8291 48.795 13.2041 47.0325 12.675L32.5616 8.3334H66.67V29.1668C66.67 31.4668 68.5325 33.3334 70.8366 33.3334C73.1407 33.3334 75.0032 31.4668 75.0032 29.1668V4.1668C75.0032 1.8666 73.1407 0 70.8366 0H4.16997C4.01997 0 3.88658 0.0625 3.74087 0.0791016C3.54497 0.1 3.36587 0.133203 3.17837 0.179102C2.74087 0.291602 2.34497 0.4625 1.97427 0.695703C1.88267 0.754102 1.77017 0.758203 1.68267 0.824805C1.64908 0.85 1.63658 0.895898 1.60318 0.920898C1.14908 1.2791 0.769974 1.7166 0.494974 2.2375C0.436575 2.35 0.424075 2.4709 0.378372 2.5875C0.244974 2.9041 0.0992706 3.2125 0.0492706 3.5625C0.0283722 3.6875 0.0658722 3.8041 0.0617706 3.925C0.0576691 4.0084 0.00337219 4.0834 0.00337219 4.1666V87.5C0.00337219 89.4875 1.40747 91.1959 3.35337 91.5834L45.02 99.9168C45.2909 99.9752 45.5659 100 45.8366 100C46.7907 100 47.7282 99.6711 48.4782 99.0543C49.4407 98.2627 50.0032 97.0834 50.0032 95.8334V91.6668H70.8366C73.1407 91.6668 75.0032 89.8002 75.0032 87.5002V62.5C75.0032 60.2 73.1407 58.3334 70.8366 58.3334Z" fill="black"/>
</g>
<defs>
<clipPath id="clip0">
<rect width="100" height="100" fill="white"/>
</clipPath>
</defs>
</svg>
