<svg width="80" height="80" viewBox="0 0 80 80" fill="none" xmlns="http://www.w3.org/2000/svg">
<path d="M77.0125 1.5625H2.98594V78.4375H77.0125V1.5625Z" fill="#5796D1"/>
<path d="M77.0136 80H2.9864C2.12344 80 1.4239 79.3003 1.4239 78.4375V1.5625C1.4239 0.699531 2.12344 0 2.9864 0H77.0136C77.8766 0 78.5761 0.699531 78.5761 1.5625V78.4375C78.5761 79.3003 77.8766 80 77.0136 80ZM4.5489 76.875H75.4511V3.125H4.5489V76.875Z" fill="black"/>
<path d="M39.9997 72.8398C21.898 72.8398 7.17125 58.1077 7.17125 39.9997C7.17125 21.8919 21.898 7.16016 39.9997 7.16016C58.1017 7.16016 72.8288 21.892 72.8288 39.9997C72.8288 58.1078 58.1017 72.8398 39.9997 72.8398Z" fill="#DAE9EC"/>
<path d="M39.9997 74.4025C21.0366 74.4025 5.60875 58.9694 5.60875 39.9997C5.60875 21.0303 21.0364 5.5975 39.9997 5.5975C58.9633 5.5975 74.3911 21.0303 74.3911 39.9997C74.3911 58.9694 58.9633 74.4025 39.9997 74.4025ZM39.9997 8.7225C22.7597 8.7225 8.73375 22.7534 8.73375 39.9997C8.73375 57.2462 22.7595 71.2775 39.9997 71.2775C57.24 71.2775 71.2663 57.2462 71.2663 39.9997C71.2663 22.7534 57.24 8.7225 39.9997 8.7225Z" fill="black"/>
<path d="M39.9997 67.8261C24.6614 67.8261 12.183 55.3431 12.183 39.9997C12.183 24.6566 24.6616 12.1739 39.9997 12.1739C41.8927 12.1739 43.7845 12.3655 45.623 12.743C46.4683 12.9166 47.0128 13.7425 46.8392 14.588C46.6656 15.4334 45.8395 15.9773 44.9944 15.8042C43.3623 15.4689 41.6819 15.2991 39.9998 15.2991C26.3847 15.2991 15.3081 26.3798 15.3081 39.9998C15.3081 53.6203 26.3848 64.7013 39.9998 64.7013C53.6155 64.7013 64.6925 53.6203 64.6925 39.9998C64.6925 36.8936 64.1241 33.8658 63.0028 31.0003C62.6884 30.1967 63.0848 29.2905 63.8884 28.9759C64.692 28.6619 65.5984 29.058 65.913 29.8617C67.1767 33.0914 67.8175 36.5023 67.8175 39.9998C67.8172 55.3431 55.3383 67.8261 39.9997 67.8261ZM51.0576 17.7342C50.1947 17.7342 49.4944 17.0345 49.4944 16.1717C49.4944 15.3089 50.1931 14.6092 51.0561 14.6092H51.0576C51.9205 14.6092 52.6201 15.3089 52.6201 16.1717C52.6201 17.0345 51.9205 17.7342 51.0576 17.7342Z" fill="black"/>
<path d="M36.8752 37.4577C34.1475 34.387 29.2305 30.9736 25.6223 30.9736C20.3666 30.9736 18.9781 39.1077 18.9781 42.0833C18.9781 45.0589 20.3666 47.4394 25.6223 47.4394C29.5317 47.4394 35.1514 45.5006 37.6403 43.2661" fill="#C3C1C7"/>
<path d="M37.4586 43.1264C34.3889 45.8552 30.9767 50.7738 30.9767 54.3831C30.9767 59.6406 39.2072 61.0289 42.0827 61.0289C45.0573 61.0289 47.437 59.6406 47.437 54.3831C47.437 50.4858 45.4555 44.8891 43.2464 42.3866" fill="#828AA0"/>
<path d="M43.1253 42.5428C45.8531 45.6136 50.7702 49.027 54.3783 49.027C59.6341 49.027 61.0219 40.7937 61.0219 37.9173C61.0219 34.9417 59.6341 32.5605 54.3783 32.5605C50.4689 32.5605 44.8491 34.4995 42.3602 36.7344" fill="#C3C1C7"/>
<path d="M42.5419 36.8741C45.6116 34.1455 49.0239 29.2267 49.0239 25.6175C49.0239 20.36 40.7934 18.9711 37.918 18.9711C34.9433 18.9711 32.5628 20.36 32.5628 25.6175C32.5628 29.5281 34.5013 35.1498 36.7353 37.6397" fill="#828AA0"/>
<path d="M40 44.0295C42.2247 44.0295 44.0281 42.2254 44.0281 40C44.0281 37.7745 42.2247 35.9705 40 35.9705C37.7753 35.9705 35.9719 37.7745 35.9719 40C35.9719 42.2254 37.7753 44.0295 40 44.0295Z" fill="#F15D43"/>
<path d="M54.3783 30.998C52.5991 30.998 50.5377 31.3534 48.5355 31.9448C49.7702 29.8091 50.5864 27.5752 50.5864 25.6177C50.5864 23.5748 49.643 20.7475 45.1489 18.88C42.3542 17.7186 39.2887 17.4088 37.9181 17.4088C34.7623 17.4088 31.0005 18.8328 31.0005 25.6177C31.0005 27.3975 31.3559 29.4597 31.9472 31.4625C29.8122 30.2275 27.5792 29.4113 25.6225 29.4113C23.5783 29.4113 20.7503 30.348 18.8875 34.8109C17.8011 37.4133 17.4158 40.355 17.4158 42.0834C17.4158 45.2397 18.8395 49.002 25.6225 49.002C27.4019 49.002 29.4634 48.6466 31.4658 48.0552C30.2308 50.1913 29.4144 52.4253 29.4144 54.3831C29.4144 56.4259 30.3578 59.2533 34.852 61.1205C37.6466 62.2817 40.712 62.5914 42.0828 62.5914C45.2383 62.5914 48.9997 61.1673 48.9997 54.3831C48.9997 52.6109 48.6348 50.5403 48.0294 48.5241C50.1717 49.7669 52.4142 50.5894 54.3786 50.5894C56.4211 50.5894 59.2477 49.6456 61.1142 45.1498C62.2748 42.3545 62.5845 39.2883 62.5845 37.9172C62.5844 34.7608 61.1606 30.998 54.3783 30.998ZM37.5345 40.0003C37.5345 38.64 38.6406 37.5333 40.0002 37.5333C41.3597 37.5333 42.4658 38.64 42.4658 40.0003C42.4658 41.3606 41.3597 42.4672 40.0002 42.4672C38.6406 42.4672 37.5345 41.3606 37.5345 40.0003ZM34.1255 25.6175C34.1255 20.9266 36.0831 20.5336 37.9181 20.5336C40.3641 20.5336 47.4616 21.7853 47.4616 25.6175C47.4616 28.1572 45.1864 31.8891 42.7309 34.5064C42.5497 34.6236 42.3748 34.7422 42.2069 34.8623C41.5295 34.5703 40.7836 34.4083 40.0003 34.4083C38.8862 34.4083 37.8473 34.7359 36.9747 35.2998C36.9583 35.2838 36.9417 35.2677 36.9253 35.2516C35.37 32.6838 34.1255 28.5667 34.1255 25.6175ZM25.6223 45.8769C20.9333 45.8769 20.5406 43.9188 20.5406 42.0833C20.5406 39.5342 21.745 32.5361 25.6223 32.5361C28.1606 32.5361 31.8911 34.812 34.5077 37.2683C34.6248 37.4497 34.7436 37.6247 34.8637 37.7928C34.5716 38.4703 34.4095 39.2167 34.4095 40.0003C34.4095 41.1147 34.7372 42.1541 35.3012 43.027C35.2852 43.0434 35.2689 43.06 35.2528 43.0766C32.6862 44.6322 28.5706 45.8769 25.6223 45.8769ZM42.0827 59.4664C39.6367 59.4664 32.5392 58.215 32.5392 54.3831C32.5392 51.8436 34.8145 48.1114 37.27 45.4938C37.4511 45.3767 37.6258 45.2581 37.7936 45.1381C38.4709 45.4303 39.2169 45.5922 40.0002 45.5922C41.1072 45.5922 42.14 45.2688 43.0092 44.7114C44.5966 47.3013 45.8744 51.4563 45.8744 54.3831C45.8744 59.0736 43.9172 59.4664 42.0827 59.4664ZM54.3783 47.4644C51.8036 47.4644 48.003 45.1231 45.3819 42.6272C45.2956 42.4963 45.2084 42.3689 45.1205 42.245C45.423 41.5575 45.5909 40.7981 45.5909 40.0002C45.5909 38.8856 45.2633 37.8464 44.6994 36.9734C44.7158 36.9567 44.7322 36.94 44.7484 36.9231C47.3153 35.3677 51.4305 34.1228 54.3783 34.1228C59.0667 34.1228 59.4594 36.0814 59.4594 37.9172C59.4594 40.3642 58.2084 47.4644 54.3783 47.4644Z" fill="black"/>
<path d="M68.4359 12.5844C70.1957 12.5844 71.6223 11.1573 71.6223 9.39688C71.6223 7.63647 70.1957 6.20938 68.4359 6.20938C66.6761 6.20938 65.2495 7.63647 65.2495 9.39688C65.2495 11.1573 66.6761 12.5844 68.4359 12.5844Z" fill="#F15D43"/>
<path d="M68.4358 14.1467C65.8172 14.1467 63.6869 12.0158 63.6869 9.39672C63.6869 6.77766 65.8172 4.64688 68.4358 4.64688C71.0542 4.64688 73.1845 6.77766 73.1845 9.39672C73.1845 12.0158 71.0542 14.1467 68.4358 14.1467ZM68.4358 7.77172C67.5403 7.77172 66.8119 8.50063 66.8119 9.39657C66.8119 10.2925 67.5403 11.0216 68.4358 11.0216C69.3311 11.0216 70.0595 10.2925 70.0595 9.39657C70.0595 8.50063 69.3311 7.77172 68.4358 7.77172Z" fill="black"/>
<path d="M11.5641 12.5844C13.3239 12.5844 14.7505 11.1573 14.7505 9.39688C14.7505 7.63647 13.3239 6.20938 11.5641 6.20938C9.80426 6.20938 8.37766 7.63647 8.37766 9.39688C8.37766 11.1573 9.80426 12.5844 11.5641 12.5844Z" fill="#F15D43"/>
<path d="M11.5642 14.1467C8.94578 14.1467 6.81547 12.0158 6.81547 9.39672C6.81547 6.77766 8.94578 4.64688 11.5642 4.64688C14.1828 4.64688 16.3131 6.77766 16.3131 9.39672C16.3131 12.0158 14.1828 14.1467 11.5642 14.1467ZM11.5642 7.77172C10.6689 7.77172 9.94047 8.50063 9.94047 9.39657C9.94047 10.2925 10.6689 11.0216 11.5642 11.0216C12.4597 11.0216 13.1881 10.2925 13.1881 9.39657C13.1881 8.50063 12.4597 7.77172 11.5642 7.77172Z" fill="black"/>
<path d="M68.4359 73.7906C70.1957 73.7906 71.6223 72.3635 71.6223 70.6031C71.6223 68.8427 70.1957 67.4156 68.4359 67.4156C66.6761 67.4156 65.2495 68.8427 65.2495 70.6031C65.2495 72.3635 66.6761 73.7906 68.4359 73.7906Z" fill="#F15D43"/>
<path d="M68.4358 75.3533C65.8172 75.3533 63.6869 73.2225 63.6869 70.6034C63.6869 67.9844 65.8172 65.8534 68.4358 65.8534C71.0542 65.8534 73.1845 67.9844 73.1845 70.6034C73.1845 73.2225 71.0542 75.3533 68.4358 75.3533ZM68.4358 68.9783C67.5403 68.9783 66.8119 69.7073 66.8119 70.6033C66.8119 71.4992 67.5403 72.2281 68.4358 72.2281C69.3311 72.2281 70.0595 71.4992 70.0595 70.6033C70.0595 69.7073 69.3311 68.9783 68.4358 68.9783Z" fill="black"/>
<path d="M11.5641 73.7906C13.3239 73.7906 14.7505 72.3635 14.7505 70.6031C14.7505 68.8427 13.3239 67.4156 11.5641 67.4156C9.80426 67.4156 8.37766 68.8427 8.37766 70.6031C8.37766 72.3635 9.80426 73.7906 11.5641 73.7906Z" fill="#F15D43"/>
<path d="M11.5642 75.3533C8.94578 75.3533 6.81547 73.2225 6.81547 70.6034C6.81547 67.9844 8.94578 65.8534 11.5642 65.8534C14.1828 65.8534 16.3131 67.9844 16.3131 70.6034C16.3131 73.2225 14.1828 75.3533 11.5642 75.3533ZM11.5642 68.9783C10.6689 68.9783 9.94047 69.7073 9.94047 70.6033C9.94047 71.4992 10.6689 72.2281 11.5642 72.2281C12.4597 72.2281 13.1881 71.4992 13.1881 70.6033C13.1881 69.7073 12.4597 68.9783 11.5642 68.9783Z" fill="black"/>
</svg>
