<svg width="80" height="80" viewBox="0 0 80 80" fill="none" xmlns="http://www.w3.org/2000/svg">
<path d="M7.52 2.66667H72.48C75.8968 2.66667 78.6667 5.4365 78.6667 8.85333V23.1467C78.6667 26.5635 75.8968 29.3333 72.48 29.3333H7.52C4.10317 29.3333 1.33333 26.5635 1.33333 23.1467V8.85333C1.33333 5.4365 4.10317 2.66667 7.52 2.66667Z" fill="#D1E3EE"/>
<path d="M7.88 49.3333C5.98433 49.338 4.1655 48.5848 2.828 47.2413C0.837668 45.2442 0.843168 42.0117 2.84033 40.0213C3.77017 39.0947 5.021 38.5618 6.33333 38.5333H6.44133C7.79317 38.5303 9.08967 39.0692 10.0413 40.0293L10.1453 40.132C10.6603 40.6583 10.6513 41.5025 10.125 42.0175C9.61084 42.5207 8.79033 42.5253 8.27067 42.028L8.16133 41.92C7.69067 41.4518 7.05183 41.1925 6.388 41.2C5.04217 41.2263 3.9725 42.3388 3.99883 43.6847C4.01117 44.315 4.26733 44.9158 4.71333 45.3613C6.485 47.0533 9.27367 47.0533 11.0453 45.3613C12.438 43.9765 13.2187 42.092 13.2133 40.128V34.4067C13.2133 33.6703 13.8103 33.0733 14.5467 33.0733C15.283 33.0733 15.88 33.6703 15.88 34.4067V40.1227C15.888 42.7938 14.8268 45.3572 12.9333 47.2413C11.596 48.5858 9.77633 49.3392 7.88 49.3333Z" fill="#88D0EF"/>
<path d="M18.6667 54.6667C17.9303 54.6665 17.3335 54.0695 17.3337 53.333C17.3337 52.9795 17.4742 52.6407 17.724 52.3907C20.8993 49.2328 22.6792 44.9357 22.6667 40.4573V36C22.6667 35.2637 23.2637 34.6667 24 34.6667C24.7363 34.6667 25.3333 35.2637 25.3333 36V40.4573C25.3478 45.6432 23.2865 50.6193 19.6093 54.276C19.3593 54.526 19.0203 54.6667 18.6667 54.6667Z" fill="#88D0EF"/>
<path d="M33.3333 57.3333C32.597 57.3333 32 56.7363 32 56V42.6667C32 41.9303 32.597 41.3333 33.3333 41.3333C34.0697 41.3333 34.6667 41.9303 34.6667 42.6667V56C34.6667 56.7363 34.0697 57.3333 33.3333 57.3333Z" fill="#88D0EF"/>
<path d="M33.3333 38.6667C32.597 38.6667 32 38.0697 32 37.3333V34.6667C32 33.9303 32.597 33.3333 33.3333 33.3333C34.0697 33.3333 34.6667 33.9303 34.6667 34.6667V37.3333C34.6667 38.0697 34.0697 38.6667 33.3333 38.6667Z" fill="#88D0EF"/>
<path d="M72.12 49.3333C70.2237 49.3392 68.4038 48.5858 67.0667 47.2413C65.1722 45.3577 64.11 42.7943 64.1173 40.1227V34.4067C64.1173 33.6703 64.7143 33.0733 65.4507 33.0733C66.187 33.0733 66.784 33.6703 66.784 34.4067V40.1227C66.7787 42.0867 67.5593 43.9712 68.952 45.356C70.7237 47.048 73.5123 47.048 75.284 45.356C76.2335 44.4018 76.2298 42.8587 75.2757 41.9092C74.8325 41.4682 74.237 41.2143 73.612 41.2C72.9493 41.1912 72.3107 41.448 71.8387 41.9133L71.724 42.0267C71.209 42.553 70.3648 42.562 69.8385 42.047C69.3122 41.532 69.3032 40.6878 69.8182 40.1615C69.8283 40.151 69.8388 40.1408 69.8493 40.1307L69.9587 40.0227C70.9423 39.0452 72.2802 38.5078 73.6667 38.5333C76.4857 38.5917 78.7237 40.9242 78.6653 43.7432C78.6382 45.0598 78.103 46.3152 77.172 47.2467C75.8337 48.5882 74.0148 49.3393 72.12 49.3333Z" fill="#88D0EF"/>
<path d="M61.3333 54.6667C60.9797 54.6667 60.6407 54.526 60.3907 54.276C56.7135 50.6193 54.6522 45.6432 54.6667 40.4573V36C54.6667 35.2637 55.2637 34.6667 56 34.6667C56.7363 34.6667 57.3333 35.2637 57.3333 36V40.4573C57.3208 44.9357 59.1007 49.2328 62.276 52.3907C62.7967 52.9115 62.7965 53.7557 62.2757 54.2763C62.0257 54.5262 61.6868 54.6667 61.3333 54.6667Z" fill="#88D0EF"/>
<path d="M46.6667 57.3333C45.9303 57.3333 45.3333 56.7363 45.3333 56V42.6667C45.3333 41.9303 45.9303 41.3333 46.6667 41.3333C47.403 41.3333 48 41.9303 48 42.6667V56C48 56.7363 47.403 57.3333 46.6667 57.3333Z" fill="#88D0EF"/>
<path d="M46.6667 38.6667C45.9303 38.6667 45.3333 38.0697 45.3333 37.3333V34.6667C45.3333 33.9303 45.9303 33.3333 46.6667 33.3333C47.403 33.3333 48 33.9303 48 34.6667V37.3333C48 38.0697 47.403 38.6667 46.6667 38.6667Z" fill="#88D0EF"/>
<path d="M72 25.3333H8C7.26366 25.3333 6.66666 24.7363 6.66666 24C6.66666 23.2637 7.26366 22.6667 8 22.6667H72C72.7363 22.6667 73.3333 23.2637 73.3333 24C73.3333 24.7363 72.7363 25.3333 72 25.3333Z" fill="#7D8F9F"/>
<path d="M72 20H8C7.26366 20 6.66666 19.403 6.66666 18.6667C6.66666 17.9303 7.26366 17.3333 8 17.3333H72C72.7363 17.3333 73.3333 17.9303 73.3333 18.6667C73.3333 19.403 72.7363 20 72 20Z" fill="#7D8F9F"/>
<path d="M65.3333 8H70.6667C72.1395 8 73.3333 9.19383 73.3333 10.6667C73.3333 12.1395 72.1395 13.3333 70.6667 13.3333H65.3333C63.8605 13.3333 62.6667 12.1395 62.6667 10.6667C62.6667 9.19383 63.8605 8 65.3333 8Z" fill="#FFBF41"/>
<path d="M56 12H53.3333C52.597 12 52 11.403 52 10.6667C52 9.93033 52.597 9.33333 53.3333 9.33333H56C56.7363 9.33333 57.3333 9.93033 57.3333 10.6667C57.3333 11.403 56.7363 12 56 12Z" fill="#4FB86A"/>
<path d="M48 12H45.3333C44.597 12 44 11.403 44 10.6667C44 9.93033 44.597 9.33333 45.3333 9.33333H48C48.7363 9.33333 49.3333 9.93033 49.3333 10.6667C49.3333 11.403 48.7363 12 48 12Z" fill="#2BB3CE"/>
<path d="M64 73.3333C61.7908 73.3333 60 71.5425 60 69.3333C60 67.1242 61.7908 65.3333 64 65.3333C66.2092 65.3333 68 67.1242 68 69.3333C68 71.5425 66.2092 73.3333 64 73.3333ZM64 68C63.2637 68 62.6667 68.597 62.6667 69.3333C62.6667 70.0697 63.2637 70.6667 64 70.6667C64.7363 70.6667 65.3333 70.0697 65.3333 69.3333C65.3333 68.597 64.7363 68 64 68Z" fill="#88D0EF"/>
<path d="M66.6667 78.6667C66.313 78.6667 65.974 78.526 65.724 78.276L64 76.552L62.276 78.276C61.7463 78.7877 60.9023 78.773 60.3907 78.2433C59.8915 77.7267 59.8915 76.9073 60.3907 76.3907L64 72.7813L67.6093 76.3907C68.13 76.9115 68.1298 77.7557 67.609 78.2763C67.359 78.5262 67.0202 78.6667 66.6667 78.6667Z" fill="#88D0EF"/>
<path d="M64 76C63.2637 76 62.6667 75.403 62.6667 74.6667V72C62.6667 71.2637 63.2637 70.6667 64 70.6667C64.7363 70.6667 65.3333 71.2637 65.3333 72V74.6667C65.3333 75.403 64.7363 76 64 76Z" fill="#88D0EF"/>
<path d="M64 65.8853L60.3907 62.276C59.879 61.7463 59.8937 60.9023 60.4233 60.3907C60.94 59.8915 61.7593 59.8915 62.276 60.3907L64 62.1147L65.724 60.3907C66.2537 59.879 67.0977 59.8937 67.6093 60.4233C68.1085 60.94 68.1085 61.7593 67.6093 62.276L64 65.8853Z" fill="#88D0EF"/>
<path d="M64 68C63.2637 68 62.6667 67.403 62.6667 66.6667V64C62.6667 63.2637 63.2637 62.6667 64 62.6667C64.7363 62.6667 65.3333 63.2637 65.3333 64V66.6667C65.3333 67.403 64.7363 68 64 68Z" fill="#88D0EF"/>
<path d="M72 73.3333C71.6463 73.3333 71.3073 73.1927 71.0573 72.9427L67.448 69.3333L71.0573 65.724C71.587 65.2123 72.431 65.227 72.9427 65.7567C73.4418 66.2733 73.4418 67.0927 72.9427 67.6093L71.2187 69.3333L72.9427 71.0573C73.4633 71.5782 73.4632 72.4223 72.9423 72.943C72.6923 73.1928 72.3535 73.3333 72 73.3333Z" fill="#88D0EF"/>
<path d="M69.3333 70.6667H66.6667C65.9303 70.6667 65.3333 70.0697 65.3333 69.3333C65.3333 68.597 65.9303 68 66.6667 68H69.3333C70.0697 68 70.6667 68.597 70.6667 69.3333C70.6667 70.0697 70.0697 70.6667 69.3333 70.6667Z" fill="#88D0EF"/>
<path d="M56 73.3333C55.2637 73.3332 54.6668 72.7362 54.667 71.9997C54.667 71.6462 54.8075 71.3073 55.0573 71.0573L56.7813 69.3333L55.0573 67.6093C54.5457 67.0797 54.5603 66.2357 55.09 65.724C55.6067 65.2248 56.426 65.2248 56.9427 65.724L60.552 69.3333L56.9427 72.9427C56.6927 73.1927 56.3537 73.3333 56 73.3333Z" fill="#88D0EF"/>
<path d="M61.3333 70.6667H58.6667C57.9303 70.6667 57.3333 70.0697 57.3333 69.3333C57.3333 68.597 57.9303 68 58.6667 68H61.3333C62.0697 68 62.6667 68.597 62.6667 69.3333C62.6667 70.0697 62.0697 70.6667 61.3333 70.6667Z" fill="#88D0EF"/>
<path d="M24 70.6667C21.7908 70.6667 20 68.8758 20 66.6667C20 64.4575 21.7908 62.6667 24 62.6667C26.2092 62.6667 28 64.4575 28 66.6667C28 68.8758 26.2092 70.6667 24 70.6667ZM24 65.3333C23.2637 65.3333 22.6667 65.9303 22.6667 66.6667C22.6667 67.403 23.2637 68 24 68C24.7363 68 25.3333 67.403 25.3333 66.6667C25.3333 65.9303 24.7363 65.3333 24 65.3333Z" fill="#88D0EF"/>
<path d="M26.6667 76C26.313 76 25.974 75.8593 25.724 75.6093L24 73.8853L22.276 75.6093C21.7463 76.1208 20.9022 76.1063 20.3907 75.5767C19.8917 75.06 19.8917 74.2408 20.3907 73.724L24 70.1147L27.6093 73.724C28.13 74.2448 28.1298 75.089 27.609 75.6097C27.3592 75.8595 27.0202 76 26.6667 76Z" fill="#88D0EF"/>
<path d="M24 73.3333C23.2637 73.3333 22.6667 72.7363 22.6667 72V69.3333C22.6667 68.597 23.2637 68 24 68C24.7363 68 25.3333 68.597 25.3333 69.3333V72C25.3333 72.7363 24.7363 73.3333 24 73.3333Z" fill="#88D0EF"/>
<path d="M24 63.2187L20.3907 59.6093C19.879 59.0797 19.8937 58.2357 20.4233 57.724C20.94 57.225 21.7592 57.225 22.276 57.724L24 59.448L25.724 57.724C26.2537 57.2125 27.0977 57.227 27.6093 57.7567C28.1083 58.2733 28.1083 59.0925 27.6093 59.6093L24 63.2187Z" fill="#88D0EF"/>
<path d="M24 65.3333C23.2637 65.3333 22.6667 64.7363 22.6667 64V61.3333C22.6667 60.597 23.2637 60 24 60C24.7363 60 25.3333 60.597 25.3333 61.3333V64C25.3333 64.7363 24.7363 65.3333 24 65.3333Z" fill="#88D0EF"/>
<path d="M32 70.6667C31.6463 70.6667 31.3073 70.526 31.0573 70.276L27.448 66.6667L31.0573 63.0573C31.587 62.5458 32.4312 62.5603 32.9427 63.09C33.4417 63.6067 33.4417 64.4258 32.9427 64.9427L31.2187 66.6667L32.9427 68.3907C33.4633 68.9115 33.4632 69.7557 32.9423 70.2763C32.6923 70.5262 32.3535 70.6667 32 70.6667Z" fill="#88D0EF"/>
<path d="M29.3333 68H26.6667C25.9303 68 25.3333 67.403 25.3333 66.6667C25.3333 65.9303 25.9303 65.3333 26.6667 65.3333H29.3333C30.0697 65.3333 30.6667 65.9303 30.6667 66.6667C30.6667 67.403 30.0697 68 29.3333 68Z" fill="#88D0EF"/>
<path d="M16 70.6667C15.2637 70.6665 14.6668 70.0695 14.667 69.333C14.667 68.9795 14.8075 68.6407 15.0573 68.3907L16.7813 66.6667L15.0573 64.9427C14.5457 64.413 14.5603 63.569 15.09 63.0573C15.6067 62.5582 16.426 62.5582 16.9427 63.0573L20.552 66.6667L16.9427 70.276C16.6927 70.526 16.3537 70.6667 16 70.6667Z" fill="#88D0EF"/>
<path d="M21.3333 68H18.6667C17.9303 68 17.3333 67.403 17.3333 66.6667C17.3333 65.9303 17.9303 65.3333 18.6667 65.3333H21.3333C22.0697 65.3333 22.6667 65.9303 22.6667 66.6667C22.6667 67.403 22.0697 68 21.3333 68Z" fill="#88D0EF"/>
<path d="M72.4787 1.33333H7.52133C3.36917 1.33767 0.00433333 4.7025 0 8.85466V23.1453C0.00433333 27.2975 3.36917 30.6623 7.52133 30.6667H72.4787C76.6308 30.6623 79.9957 27.2975 80 23.1453V8.85466C79.9957 4.7025 76.6308 1.33767 72.4787 1.33333ZM77.3333 23.1453C77.3303 25.8253 75.1587 27.997 72.4787 28H7.52133C4.84133 27.997 2.66967 25.8253 2.66667 23.1453V8.85466C2.66967 6.17466 4.84133 4.003 7.52133 4H72.4787C75.1587 4.003 77.3303 6.17466 77.3333 8.85466V23.1453Z" fill="black"/>
<path d="M15.88 34.4067C15.88 33.6703 15.283 33.0733 14.5467 33.0733C13.8103 33.0733 13.2133 33.6703 13.2133 34.4067V40.1227C13.2187 42.0867 12.438 43.9712 11.0453 45.356C9.27367 47.048 6.485 47.048 4.71334 45.356C3.76384 44.4018 3.76767 42.8587 4.72167 41.9092C5.16533 41.4675 5.762 41.2137 6.388 41.2C7.05334 41.1907 7.6945 41.4497 8.16667 41.9187L8.276 42.0267C8.808 42.5358 9.652 42.5172 10.1612 41.985C10.6585 41.4652 10.6538 40.6447 10.1507 40.1307L10.0467 40.028C9.095 39.0678 7.7985 38.5292 6.44667 38.532H6.33333C3.51434 38.5903 1.27633 40.9228 1.33467 43.7418C1.36183 45.0585 1.897 46.3138 2.828 47.2453C5.61784 50.035 10.1408 50.035 12.9307 47.2453C14.8252 45.3617 15.8873 42.7983 15.88 40.1267V34.4067Z" fill="black"/>
<path d="M19.6093 54.276C23.2865 50.6193 25.3478 45.6432 25.3333 40.4573V36C25.3333 35.2637 24.7363 34.6667 24 34.6667C23.2637 34.6667 22.6667 35.2637 22.6667 36V40.4573C22.6792 44.9357 20.8993 49.2328 17.724 52.3907C17.1943 52.9023 17.1797 53.7463 17.6913 54.276C18.203 54.8057 19.047 54.8203 19.5767 54.3087C19.5877 54.298 19.5987 54.2872 19.6093 54.276Z" fill="black"/>
<path d="M32 56C32 56.7363 32.597 57.3333 33.3333 57.3333C34.0697 57.3333 34.6667 56.7363 34.6667 56V42.6667C34.6667 41.9303 34.0697 41.3333 33.3333 41.3333C32.597 41.3333 32 41.9303 32 42.6667V56Z" fill="black"/>
<path d="M33.3333 33.3333C32.597 33.3333 32 33.9303 32 34.6667V37.3333C32 38.0697 32.597 38.6667 33.3333 38.6667C34.0697 38.6667 34.6667 38.0697 34.6667 37.3333V34.6667C34.6667 33.9303 34.0697 33.3333 33.3333 33.3333Z" fill="black"/>
<path d="M73.6667 38.5333C72.2802 38.5078 70.9423 39.0452 69.9587 40.0227L69.8493 40.1307C69.3172 40.6397 69.2987 41.4837 69.8077 42.0158C70.3167 42.548 71.1607 42.5665 71.6928 42.0575C71.7033 42.0473 71.7138 42.0372 71.724 42.0267L71.8387 41.9133C72.3107 41.448 72.9493 41.1912 73.612 41.2C74.9578 41.2263 76.0275 42.3388 76.0012 43.6847C75.9888 44.315 75.7327 44.9158 75.2867 45.3613C73.515 47.0533 70.7263 47.0533 68.9547 45.3613C67.562 43.9765 66.7813 42.092 66.7867 40.128V34.4067C66.7867 33.6703 66.1897 33.0733 65.4533 33.0733C64.717 33.0733 64.12 33.6703 64.12 34.4067V40.1227C64.112 42.7938 65.1732 45.3572 67.0667 47.2413C69.8565 50.031 74.3795 50.031 77.1693 47.2413C79.1597 45.2442 79.1543 42.0117 77.1572 40.0213C76.228 39.0953 74.9782 38.5625 73.6667 38.5333Z" fill="black"/>
<path d="M56 34.6667C55.2637 34.6667 54.6667 35.2637 54.6667 36V40.4573C54.6522 45.6432 56.7135 50.6193 60.3907 54.276C60.9203 54.7877 61.7643 54.773 62.276 54.2433C62.7752 53.7267 62.7752 52.9073 62.276 52.3907C59.1007 49.2328 57.3208 44.9357 57.3333 40.4573V36C57.3333 35.2637 56.7363 34.6667 56 34.6667Z" fill="black"/>
<path d="M45.3333 56C45.3333 56.7363 45.9303 57.3333 46.6667 57.3333C47.403 57.3333 48 56.7363 48 56V42.6667C48 41.9303 47.403 41.3333 46.6667 41.3333C45.9303 41.3333 45.3333 41.9303 45.3333 42.6667V56Z" fill="black"/>
<path d="M46.6667 38.6667C47.403 38.6667 48 38.0697 48 37.3333V34.6667C48 33.9303 47.403 33.3333 46.6667 33.3333C45.9303 33.3333 45.3333 33.9303 45.3333 34.6667V37.3333C45.3333 38.0697 45.9303 38.6667 46.6667 38.6667Z" fill="black"/>
<path d="M72 22.6667H8C7.26366 22.6667 6.66666 23.2637 6.66666 24C6.66666 24.7363 7.26366 25.3333 8 25.3333H72C72.7363 25.3333 73.3333 24.7363 73.3333 24C73.3333 23.2637 72.7363 22.6667 72 22.6667Z" fill="black"/>
<path d="M72 17.3333H8C7.26366 17.3333 6.66666 17.9303 6.66666 18.6667C6.66666 19.403 7.26366 20 8 20H72C72.7363 20 73.3333 19.403 73.3333 18.6667C73.3333 17.9303 72.7363 17.3333 72 17.3333Z" fill="black"/>
<path d="M70.6667 6.66667H65.3333C63.1242 6.66667 61.3333 8.4575 61.3333 10.6667C61.3333 12.8758 63.1242 14.6667 65.3333 14.6667H70.6667C72.8758 14.6667 74.6667 12.8758 74.6667 10.6667C74.6667 8.4575 72.8758 6.66667 70.6667 6.66667ZM70.6667 12H65.3333C64.597 12 64 11.403 64 10.6667C64 9.93033 64.597 9.33333 65.3333 9.33333H70.6667C71.403 9.33333 72 9.93033 72 10.6667C72 11.403 71.403 12 70.6667 12Z" fill="black"/>
<path d="M53.3333 12H56C56.7363 12 57.3333 11.403 57.3333 10.6667C57.3333 9.93033 56.7363 9.33333 56 9.33333H53.3333C52.597 9.33333 52 9.93033 52 10.6667C52 11.403 52.597 12 53.3333 12Z" fill="black"/>
<path d="M45.3333 12H48C48.7363 12 49.3333 11.403 49.3333 10.6667C49.3333 9.93033 48.7363 9.33333 48 9.33333H45.3333C44.597 9.33333 44 9.93033 44 10.6667C44 11.403 44.597 12 45.3333 12Z" fill="black"/>
<path d="M72.9427 65.724C72.422 65.2035 71.578 65.2035 71.0573 65.724L68.7813 68H67.7547C67.3513 66.8708 66.4625 65.982 65.3333 65.5787V64.552L67.6093 62.276C68.121 61.7463 68.1063 60.9023 67.5767 60.3907C67.06 59.8915 66.2407 59.8915 65.724 60.3907L64 62.1147L62.276 60.3907C61.7463 59.879 60.9023 59.8937 60.3907 60.4233C59.8915 60.94 59.8915 61.7593 60.3907 62.276L62.6667 64.552V65.5787C61.5375 65.982 60.6487 66.8708 60.2453 68H59.2187L56.9427 65.724C56.413 65.2123 55.569 65.227 55.0573 65.7567C54.5582 66.2733 54.5582 67.0927 55.0573 67.6093L56.7813 69.3333L55.0573 71.0573C54.5277 71.569 54.513 72.413 55.0247 72.9427C55.5363 73.4723 56.3803 73.487 56.91 72.9753C56.921 72.9647 56.932 72.9538 56.9427 72.9427L59.2187 70.6667H60.2453C60.6487 71.7958 61.5375 72.6847 62.6667 73.088V74.1147L60.3907 76.3907C59.879 76.9203 59.8937 77.7643 60.4233 78.276C60.94 78.7752 61.7593 78.7752 62.276 78.276L64 76.552L65.724 78.276C66.2537 78.7877 67.0977 78.773 67.6093 78.2433C68.1085 77.7267 68.1085 76.9073 67.6093 76.3907L65.3333 74.1147V73.088C66.4625 72.6847 67.3513 71.7958 67.7547 70.6667H68.7813L71.0573 72.9427C71.587 73.4543 72.431 73.4397 72.9427 72.91C73.4418 72.3933 73.4418 71.574 72.9427 71.0573L71.2187 69.3333L72.9427 67.6093C73.4632 67.0887 73.4632 66.2447 72.9427 65.724ZM64 70.6667C63.2637 70.6667 62.6667 70.0697 62.6667 69.3333C62.6667 68.597 63.2637 68 64 68C64.7363 68 65.3333 68.597 65.3333 69.3333C65.3333 70.0697 64.7363 70.6667 64 70.6667Z" fill="black"/>
<path d="M20.2453 68C20.6487 69.1292 21.5375 70.018 22.6667 70.4213V71.448L20.3907 73.724C19.879 74.2537 19.8937 75.0977 20.4233 75.6093C20.94 76.1083 21.7592 76.1083 22.276 75.6093L24 73.8853L25.724 75.6093C26.2537 76.1208 27.0977 76.1063 27.6093 75.5767C28.1083 75.06 28.1083 74.2408 27.6093 73.724L25.3333 71.448V70.4213C26.4625 70.018 27.3513 69.1292 27.7547 68H28.7813L31.0573 70.276C31.587 70.7875 32.431 70.773 32.9427 70.2433C33.4417 69.7267 33.4417 68.9075 32.9427 68.3907L31.2187 66.6667L32.9427 64.9427C33.4543 64.413 33.4397 63.569 32.91 63.0573C32.3933 62.5583 31.5742 62.5583 31.0573 63.0573L28.7813 65.3333H27.7547C27.3513 64.2042 26.4625 63.3153 25.3333 62.912V61.8853L27.6093 59.6093C28.121 59.0797 28.1063 58.2357 27.5767 57.724C27.06 57.225 26.2408 57.225 25.724 57.724L24 59.448L22.276 57.724C21.7463 57.2125 20.9022 57.227 20.3907 57.7567C19.8917 58.2733 19.8917 59.0925 20.3907 59.6093L22.6667 61.8853V62.912C21.5375 63.3153 20.6487 64.2042 20.2453 65.3333H19.2187L16.9427 63.0573C16.413 62.5457 15.569 62.5603 15.0573 63.09C14.5582 63.6067 14.5582 64.426 15.0573 64.9427L16.7813 66.6667L15.0573 68.3907C14.5277 68.9022 14.513 69.7463 15.0247 70.276C15.5362 70.8057 16.3803 70.8203 16.91 70.3087C16.9212 70.298 16.932 70.287 16.9427 70.276L19.2187 68H20.2453ZM24 65.3333C24.7363 65.3333 25.3333 65.9303 25.3333 66.6667C25.3333 67.403 24.7363 68 24 68C23.2637 68 22.6667 67.403 22.6667 66.6667C22.6667 65.9303 23.2637 65.3333 24 65.3333Z" fill="black"/>
</svg>
