<svg width="40" height="40" viewBox="0 0 40 40" fill="none" xmlns="http://www.w3.org/2000/svg">
<path d="M33.5417 18.664H1.45833C0.653331 18.664 0 18.0107 0 17.2057C0 16.4007 0.653331 15.7474 1.45833 15.7474H33.5417C34.3467 15.7474 35 16.4007 35 17.2057C35 18.0107 34.3467 18.664 33.5417 18.664Z" fill="black"/>
<path d="M33.5417 7.74739H1.45833C0.653331 7.74739 0 7.09406 0 6.28905C0 5.48405 0.653331 4.83072 1.45833 4.83072H33.5417C34.3467 4.83072 35 5.48405 35 6.28905C35 7.09406 34.3467 7.74739 33.5417 7.74739Z" fill="black"/>
<path d="M26.8333 29.5807H1.16667C0.522664 29.5807 0 28.9274 0 28.1224C0 27.3174 0.522664 26.664 1.16667 26.664H26.8333C27.4773 26.664 28 27.3174 28 28.1224C28 28.9274 27.4773 29.5807 26.8333 29.5807Z" fill="black"/>
</svg>
